<mxfile host="app.diagrams.net" modified="2023-02-07T02:47:54.873Z" agent="5.0 (Windows NT 10.0; Win64; x64) AppleWebKit/537.36 (KHTML, like Gecko) Chrome/109.0.0.0 Safari/537.36" etag="1RFJxmnEZ2YQI96Zms7X" version="20.8.17" type="github">
  <diagram id="C5RBs43oDa-KdzZeNtuy" name="Page-1">
    <mxGraphModel dx="1434" dy="788" grid="1" gridSize="10" guides="1" tooltips="1" connect="1" arrows="1" fold="1" page="1" pageScale="1" pageWidth="827" pageHeight="1169" math="0" shadow="0">
      <root>
        <mxCell id="WIyWlLk6GJQsqaUBKTNV-0" />
        <mxCell id="WIyWlLk6GJQsqaUBKTNV-1" parent="WIyWlLk6GJQsqaUBKTNV-0" />
        <mxCell id="8u9az_-6E9huGCgLwTI3-2" style="edgeStyle=orthogonalEdgeStyle;rounded=0;orthogonalLoop=1;jettySize=auto;html=1;exitX=0.5;exitY=0;exitDx=0;exitDy=0;entryX=0;entryY=0.5;entryDx=0;entryDy=0;" parent="WIyWlLk6GJQsqaUBKTNV-1" target="8u9az_-6E9huGCgLwTI3-1" edge="1">
          <mxGeometry relative="1" as="geometry">
            <mxPoint x="95" y="230" as="sourcePoint" />
          </mxGeometry>
        </mxCell>
        <mxCell id="8u9az_-6E9huGCgLwTI3-4" value="" style="edgeStyle=orthogonalEdgeStyle;rounded=0;orthogonalLoop=1;jettySize=auto;html=1;" parent="WIyWlLk6GJQsqaUBKTNV-1" source="8u9az_-6E9huGCgLwTI3-1" target="8u9az_-6E9huGCgLwTI3-3" edge="1">
          <mxGeometry relative="1" as="geometry" />
        </mxCell>
        <mxCell id="8u9az_-6E9huGCgLwTI3-1" value="get username" style="rounded=1;whiteSpace=wrap;html=1;fontSize=12;glass=0;strokeWidth=1;shadow=0;" parent="WIyWlLk6GJQsqaUBKTNV-1" vertex="1">
          <mxGeometry x="40" y="210" width="120" height="40" as="geometry" />
        </mxCell>
        <mxCell id="8u9az_-6E9huGCgLwTI3-20" value="" style="edgeStyle=orthogonalEdgeStyle;rounded=0;orthogonalLoop=1;jettySize=auto;html=1;" parent="WIyWlLk6GJQsqaUBKTNV-1" source="8u9az_-6E9huGCgLwTI3-3" target="8u9az_-6E9huGCgLwTI3-10" edge="1">
          <mxGeometry relative="1" as="geometry" />
        </mxCell>
        <mxCell id="8u9az_-6E9huGCgLwTI3-3" value="get password" style="rounded=1;whiteSpace=wrap;html=1;fontSize=12;glass=0;strokeWidth=1;shadow=0;" parent="WIyWlLk6GJQsqaUBKTNV-1" vertex="1">
          <mxGeometry x="40" y="290" width="120" height="40" as="geometry" />
        </mxCell>
        <mxCell id="8u9az_-6E9huGCgLwTI3-6" value="stsuu.getContextAttributes().getAttributeValuesByNameAndType(name, type)" style="ellipse;shape=cloud;whiteSpace=wrap;html=1;" parent="WIyWlLk6GJQsqaUBKTNV-1" vertex="1">
          <mxGeometry x="180" y="220" width="620" height="80" as="geometry" />
        </mxCell>
        <mxCell id="8u9az_-6E9huGCgLwTI3-13" value="IS" style="edgeStyle=orthogonalEdgeStyle;rounded=0;orthogonalLoop=1;jettySize=auto;html=1;entryX=0;entryY=0.5;entryDx=0;entryDy=0;" parent="WIyWlLk6GJQsqaUBKTNV-1" source="8u9az_-6E9huGCgLwTI3-10" target="8u9az_-6E9huGCgLwTI3-12" edge="1">
          <mxGeometry relative="1" as="geometry" />
        </mxCell>
        <mxCell id="8u9az_-6E9huGCgLwTI3-10" value="request_type" style="strokeWidth=2;html=1;shape=mxgraph.flowchart.decision;whiteSpace=wrap;" parent="WIyWlLk6GJQsqaUBKTNV-1" vertex="1">
          <mxGeometry x="50" y="360" width="100" height="100" as="geometry" />
        </mxCell>
        <mxCell id="8u9az_-6E9huGCgLwTI3-15" value="AND" style="edgeStyle=orthogonalEdgeStyle;rounded=0;orthogonalLoop=1;jettySize=auto;html=1;" parent="WIyWlLk6GJQsqaUBKTNV-1" source="8u9az_-6E9huGCgLwTI3-12" target="8u9az_-6E9huGCgLwTI3-14" edge="1">
          <mxGeometry relative="1" as="geometry" />
        </mxCell>
        <mxCell id="8u9az_-6E9huGCgLwTI3-12" value="AccessToken" style="rounded=1;whiteSpace=wrap;html=1;fontSize=12;glass=0;strokeWidth=1;shadow=0;" parent="WIyWlLk6GJQsqaUBKTNV-1" vertex="1">
          <mxGeometry x="200" y="390" width="120" height="40" as="geometry" />
        </mxCell>
        <mxCell id="8u9az_-6E9huGCgLwTI3-17" value="IS" style="edgeStyle=orthogonalEdgeStyle;rounded=0;orthogonalLoop=1;jettySize=auto;html=1;" parent="WIyWlLk6GJQsqaUBKTNV-1" source="8u9az_-6E9huGCgLwTI3-14" target="8u9az_-6E9huGCgLwTI3-16" edge="1">
          <mxGeometry relative="1" as="geometry">
            <Array as="points">
              <mxPoint x="590" y="410" />
              <mxPoint x="590" y="410" />
            </Array>
          </mxGeometry>
        </mxCell>
        <mxCell id="8u9az_-6E9huGCgLwTI3-14" value="grant_type" style="strokeWidth=2;html=1;shape=mxgraph.flowchart.decision;whiteSpace=wrap;" parent="WIyWlLk6GJQsqaUBKTNV-1" vertex="1">
          <mxGeometry x="420" y="360" width="100" height="100" as="geometry" />
        </mxCell>
        <mxCell id="8u9az_-6E9huGCgLwTI3-21" value="" style="edgeStyle=orthogonalEdgeStyle;rounded=0;orthogonalLoop=1;jettySize=auto;html=1;" parent="WIyWlLk6GJQsqaUBKTNV-1" source="8u9az_-6E9huGCgLwTI3-16" target="8u9az_-6E9huGCgLwTI3-18" edge="1">
          <mxGeometry relative="1" as="geometry">
            <Array as="points">
              <mxPoint x="720" y="460" />
              <mxPoint x="720" y="460" />
            </Array>
          </mxGeometry>
        </mxCell>
        <mxCell id="8u9az_-6E9huGCgLwTI3-16" value="Password" style="rounded=1;whiteSpace=wrap;html=1;fontSize=12;glass=0;strokeWidth=1;shadow=0;" parent="WIyWlLk6GJQsqaUBKTNV-1" vertex="1">
          <mxGeometry x="660" y="390" width="120" height="40" as="geometry" />
        </mxCell>
        <mxCell id="8u9az_-6E9huGCgLwTI3-23" value="NO" style="edgeStyle=orthogonalEdgeStyle;rounded=0;orthogonalLoop=1;jettySize=auto;html=1;" parent="WIyWlLk6GJQsqaUBKTNV-1" source="8u9az_-6E9huGCgLwTI3-18" target="8u9az_-6E9huGCgLwTI3-22" edge="1">
          <mxGeometry relative="1" as="geometry" />
        </mxCell>
        <mxCell id="8u9az_-6E9huGCgLwTI3-26" value="" style="edgeStyle=orthogonalEdgeStyle;rounded=0;orthogonalLoop=1;jettySize=auto;html=1;" parent="WIyWlLk6GJQsqaUBKTNV-1" source="8u9az_-6E9huGCgLwTI3-18" target="8u9az_-6E9huGCgLwTI3-24" edge="1">
          <mxGeometry relative="1" as="geometry" />
        </mxCell>
        <mxCell id="8u9az_-6E9huGCgLwTI3-18" value="userid &lt;br&gt;is &lt;br&gt;null?" style="strokeWidth=2;html=1;shape=mxgraph.flowchart.decision;whiteSpace=wrap;" parent="WIyWlLk6GJQsqaUBKTNV-1" vertex="1">
          <mxGeometry x="670" y="485" width="100" height="100" as="geometry" />
        </mxCell>
        <mxCell id="8u9az_-6E9huGCgLwTI3-27" value="" style="edgeStyle=orthogonalEdgeStyle;rounded=0;orthogonalLoop=1;jettySize=auto;html=1;" parent="WIyWlLk6GJQsqaUBKTNV-1" source="8u9az_-6E9huGCgLwTI3-22" target="8u9az_-6E9huGCgLwTI3-25" edge="1">
          <mxGeometry relative="1" as="geometry" />
        </mxCell>
        <mxCell id="8u9az_-6E9huGCgLwTI3-29" value="NO" style="edgeStyle=orthogonalEdgeStyle;rounded=0;orthogonalLoop=1;jettySize=auto;html=1;" parent="WIyWlLk6GJQsqaUBKTNV-1" source="8u9az_-6E9huGCgLwTI3-22" target="8u9az_-6E9huGCgLwTI3-28" edge="1">
          <mxGeometry relative="1" as="geometry" />
        </mxCell>
        <mxCell id="8u9az_-6E9huGCgLwTI3-22" value="password &lt;br&gt;is &lt;br&gt;null?" style="strokeWidth=2;html=1;shape=mxgraph.flowchart.decision;whiteSpace=wrap;" parent="WIyWlLk6GJQsqaUBKTNV-1" vertex="1">
          <mxGeometry x="500" y="485" width="100" height="100" as="geometry" />
        </mxCell>
        <mxCell id="8u9az_-6E9huGCgLwTI3-24" value="Exception" style="rounded=1;whiteSpace=wrap;html=1;fontSize=12;glass=0;strokeWidth=1;shadow=0;" parent="WIyWlLk6GJQsqaUBKTNV-1" vertex="1">
          <mxGeometry x="660" y="630" width="120" height="40" as="geometry" />
        </mxCell>
        <mxCell id="8u9az_-6E9huGCgLwTI3-25" value="Exception" style="rounded=1;whiteSpace=wrap;html=1;fontSize=12;glass=0;strokeWidth=1;shadow=0;" parent="WIyWlLk6GJQsqaUBKTNV-1" vertex="1">
          <mxGeometry x="490" y="630" width="120" height="40" as="geometry" />
        </mxCell>
        <mxCell id="8u9az_-6E9huGCgLwTI3-32" value="" style="edgeStyle=orthogonalEdgeStyle;rounded=0;orthogonalLoop=1;jettySize=auto;html=1;" parent="WIyWlLk6GJQsqaUBKTNV-1" source="8u9az_-6E9huGCgLwTI3-28" target="8u9az_-6E9huGCgLwTI3-31" edge="1">
          <mxGeometry relative="1" as="geometry" />
        </mxCell>
        <mxCell id="8u9az_-6E9huGCgLwTI3-28" value="UserLookUp&lt;br&gt;Helper" style="rounded=1;whiteSpace=wrap;html=1;absoluteArcSize=1;arcSize=14;strokeWidth=2;" parent="WIyWlLk6GJQsqaUBKTNV-1" vertex="1">
          <mxGeometry x="314" y="485" width="100" height="100" as="geometry" />
        </mxCell>
        <mxCell id="8u9az_-6E9huGCgLwTI3-34" value="" style="edgeStyle=orthogonalEdgeStyle;rounded=0;orthogonalLoop=1;jettySize=auto;html=1;" parent="WIyWlLk6GJQsqaUBKTNV-1" source="8u9az_-6E9huGCgLwTI3-31" target="8u9az_-6E9huGCgLwTI3-33" edge="1">
          <mxGeometry relative="1" as="geometry" />
        </mxCell>
        <mxCell id="8u9az_-6E9huGCgLwTI3-31" value="getuser(username)" style="rounded=1;whiteSpace=wrap;html=1;fontSize=12;glass=0;strokeWidth=1;shadow=0;" parent="WIyWlLk6GJQsqaUBKTNV-1" vertex="1">
          <mxGeometry x="150" y="515" width="120" height="40" as="geometry" />
        </mxCell>
        <mxCell id="8u9az_-6E9huGCgLwTI3-36" value="" style="edgeStyle=orthogonalEdgeStyle;rounded=0;orthogonalLoop=1;jettySize=auto;html=1;" parent="WIyWlLk6GJQsqaUBKTNV-1" source="8u9az_-6E9huGCgLwTI3-33" target="8u9az_-6E9huGCgLwTI3-35" edge="1">
          <mxGeometry relative="1" as="geometry" />
        </mxCell>
        <mxCell id="8u9az_-6E9huGCgLwTI3-33" value="authenticate(password)" style="rounded=1;whiteSpace=wrap;html=1;fontSize=12;glass=0;strokeWidth=1;shadow=0;" parent="WIyWlLk6GJQsqaUBKTNV-1" vertex="1">
          <mxGeometry x="145" y="600" width="130" height="40" as="geometry" />
        </mxCell>
        <mxCell id="8u9az_-6E9huGCgLwTI3-35" value="Authentication Successful" style="rounded=1;whiteSpace=wrap;html=1;fontSize=12;glass=0;strokeWidth=1;shadow=0;" parent="WIyWlLk6GJQsqaUBKTNV-1" vertex="1">
          <mxGeometry x="150" y="690" width="120" height="40" as="geometry" />
        </mxCell>
        <mxCell id="nGZyIxC_VcnkV5QYmEtn-2" value="" style="edgeStyle=orthogonalEdgeStyle;rounded=0;orthogonalLoop=1;jettySize=auto;html=1;" edge="1" parent="WIyWlLk6GJQsqaUBKTNV-1" source="nGZyIxC_VcnkV5QYmEtn-1" target="8u9az_-6E9huGCgLwTI3-1">
          <mxGeometry relative="1" as="geometry" />
        </mxCell>
        <mxCell id="nGZyIxC_VcnkV5QYmEtn-1" value="ropc_&lt;br&gt;registry_&lt;br&gt;validation" style="rounded=1;whiteSpace=wrap;html=1;absoluteArcSize=1;arcSize=14;strokeWidth=2;" vertex="1" parent="WIyWlLk6GJQsqaUBKTNV-1">
          <mxGeometry x="50" y="60" width="100" height="100" as="geometry" />
        </mxCell>
      </root>
    </mxGraphModel>
  </diagram>
</mxfile>
